<svg width="177" height="160" viewBox="0 0 177 160" fill="none" xmlns="http://www.w3.org/2000/svg"><mask id="a" maskUnits="userSpaceOnUse" x="0" y="0" width="170" height="158"><path d="M99.594 89.451h70l-7-89h-77v81h-85v76h99v-68z" fill="#C4C4C4"/></mask><g mask="url(#a)"><path stroke="#231F20" stroke-width="5" d="M21.094 147.95v-136h136v136z"/><path d="M37.57 43.693h13.85v46.82h6.48v12.805h-6.48v14.931H37.866v-14.931H6.11V90.513l31.46-46.82zm.296 46.82V66.139l-16.62 24.374h16.62zm51.098-46.82c5.31 0 9.876 1.302 13.702 3.906 3.858 2.603 6.826 6.592 8.903 11.964 2.111 5.34 3.166 12.789 3.166 22.347 0 9.658-1.071 17.173-3.215 22.545-2.111 5.373-4.963 9.328-8.557 11.866-3.595 2.505-8.13 3.757-13.603 3.757-5.475 0-10.075-1.269-13.801-3.806-3.727-2.538-6.645-6.395-8.756-11.57-2.11-5.174-3.165-12.541-3.165-22.1 0-13.349 2.06-23.022 6.183-29.021 4.584-6.592 10.965-9.888 19.143-9.888zm.346 13.15c-2.341 0-4.419.759-6.233 2.275-1.813 1.483-3.198 4.054-4.155 7.713-.956 3.659-1.434 9.014-1.434 16.068 0 9.196 1.088 15.557 3.265 19.084 2.209 3.494 5.061 5.241 8.557 5.241 3.364 0 6.035-1.665 8.013-4.994 2.408-4.02 3.611-10.745 3.611-20.171 0-9.559-1.088-16.151-3.264-19.777-2.144-3.625-4.93-5.438-8.36-5.438zm61.832-13.15h13.85v46.82h6.48v12.805h-6.48v14.931h-13.553v-14.931h-31.757V90.513l31.46-46.82zm.297 46.82V66.139l-16.621 24.374h16.621z" fill="#231F20"/></g><mask id="b" maskUnits="userSpaceOnUse" x="6" y="5" width="78" height="76"><path d="M6.141 6.907l75.985-1.799 1.731 73.985-75.985 1.799-1.73-73.985z" fill="#C4C4C4"/></mask><g mask="url(#b)"><path stroke="#231F20" stroke-width="5" d="M20.496 146.678L18.19 10.698 154.17 8.39l2.308 135.98z"/><path d="M35.198 42.155l13.848-.235.794 46.814 6.48-.11.217 12.803-6.48.11.254 14.929-13.551.23-.254-14.929-31.752.539-.217-12.804 30.66-47.347zm1.09 46.808l-.413-24.37-16.204 24.653 16.618-.282zm50.297-47.68c5.308-.09 9.897 1.134 13.766 3.673 3.902 2.538 6.937 6.475 9.105 11.811 2.201 5.303 3.383 12.733 3.545 22.29.164 9.657-.78 17.189-2.832 22.597-2.019 5.408-4.804 9.411-8.355 12.009-3.552 2.566-8.064 3.895-13.537 3.988-5.474.093-10.095-1.098-13.864-3.572-3.769-2.475-6.752-6.281-8.95-11.419-2.198-5.138-3.378-12.486-3.54-22.043-.227-13.347 1.67-23.055 5.69-29.123 4.47-6.669 10.795-10.072 18.972-10.211zm.57 13.143c-2.342.04-4.406.833-6.194 2.38-1.788 1.514-3.13 4.108-4.024 7.782-.894 3.675-1.281 9.038-1.161 16.09.156 9.195 1.352 15.537 3.588 19.026 2.268 3.456 5.15 5.154 8.645 5.095 3.363-.057 6.006-1.767 7.927-5.129 2.34-4.061 3.429-10.805 3.269-20.23-.163-9.557-1.362-16.13-3.6-19.718-2.205-3.589-5.022-5.354-8.45-5.296zm61.599-14.198l13.848-.235.794 46.813 6.479-.11.218 12.804-6.479.11.253 14.929-13.551.23-.254-14.93-31.752.539-.217-12.803 30.661-47.347zm1.091 46.808l-.414-24.37-16.204 24.652 16.618-.282z" fill="#231F20"/></g><mask id="c" maskUnits="userSpaceOnUse" x="99" y="91" width="78" height="69"><path d="M101.811 91.26l74.975 2.407-2.407 65.975-74.975-2.407 2.407-65.975z" fill="#C4C4C4"/></mask><g mask="url(#c)"><path stroke="#231F20" stroke-width="5" d="M22.114 148.119l2.822-135.97 135.97 2.821-2.821 135.97z"/><path d="M40.746 44.224l13.847.288-.971 46.81 6.478.134-.265 12.803-6.479-.135-.31 14.928-13.55-.281.31-14.928-31.75-.659.265-12.802 32.425-46.158zm-.675 46.817l.506-24.37-17.122 24.025 16.616.345zM92.13 45.29c5.308.111 9.847 1.507 13.617 4.19 3.804 2.684 6.688 6.732 8.654 12.147 1.999 5.382 2.9 12.851 2.701 22.408-.2 9.655-1.427 17.146-3.682 22.473-2.221 5.328-5.155 9.223-8.802 11.686-3.646 2.43-8.205 3.588-13.678 3.474-5.473-.113-10.046-1.477-13.719-4.092-3.673-2.615-6.51-6.531-8.513-11.748-2.003-5.218-2.905-12.605-2.707-22.161.277-13.346 2.539-22.975 6.784-28.887 4.72-6.496 11.168-9.659 19.345-9.49zm.073 13.156c-2.341-.048-4.434.667-6.279 2.145-1.844 1.445-3.282 3.987-4.314 7.625s-1.621 8.983-1.767 16.035c-.191 9.194.765 15.576 2.867 19.147 2.137 3.539 4.953 5.345 8.448 5.418 3.362.069 6.067-1.539 8.115-4.827 2.49-3.97 3.833-10.668 4.028-20.092.199-9.557-.752-16.17-2.853-19.84-2.068-3.67-4.816-5.54-8.245-5.61zm62.091-11.865l13.847.287-.971 46.81 6.478.135-.265 12.802-6.479-.134-.31 14.928-13.55-.281.31-14.928-31.75-.659.265-12.803 32.425-46.157zm-.675 46.816l.506-24.369-17.122 24.024 16.616.345z" fill="#231F20"/></g></svg>