<svg width="8" height="13" viewBox="0 0 8 13" fill="none" xmlns="http://www.w3.org/2000/svg"><path d="M4.114 2.209c.702 0 1.273.56 1.273 1.247s-.571 1.246-1.273 1.246c-.7 0-1.271-.56-1.271-1.246 0-.688.57-1.247 1.271-1.247zm0 4.257c1.695 0 3.073-1.35 3.073-3.01 0-1.661-1.378-3.012-3.073-3.012-1.694 0-3.072 1.351-3.072 3.012 0 1.66 1.378 3.01 3.072 3.01zm1.243 2.456a5.817 5.817 0 0 0 1.784-.724.883.883 0 0 0 .399-.551.867.867 0 0 0-.357-.916.909.909 0 0 0-1-.027 3.969 3.969 0 0 1-4.137 0 .91.91 0 0 0-1.24.277.867.867 0 0 0-.117.666.883.883 0 0 0 .398.55 5.823 5.823 0 0 0 1.784.725l-1.717 1.683a.873.873 0 0 0 0 1.248.91.91 0 0 0 1.273 0l1.687-1.655 1.689 1.654a.898.898 0 0 0 .636.259.914.914 0 0 0 .636-.259.88.88 0 0 0 .264-.623.866.866 0 0 0-.264-.624L5.357 8.922z" fill="#fff"/></svg>