<svg width="41" height="72" viewBox="0 0 41 72" fill="none" xmlns="http://www.w3.org/2000/svg"><path d="M7.9 21.1H4.5a44.63 44.63 0 0 1-1.3-3.2c-.467-1.333-.933-2.7-1.4-4.1A105.5 105.5 0 0 1 .7 9.4 38.253 38.253 0 0 1 0 5.1c2.533-1.533 5.4-2.767 8.6-3.7C11.867.467 16 0 21 0c3 0 5.667.433 8 1.3 2.4.8 4.433 1.933 6.1 3.4 1.733 1.4 3.033 3.1 3.9 5.1.933 2 1.4 4.167 1.4 6.5 0 3-.567 5.567-1.7 7.7a23.793 23.793 0 0 1-4.2 5.7c-1.667 1.6-3.5 3.1-5.5 4.5a49.693 49.693 0 0 0-5.5 4.4 22.477 22.477 0 0 0-4.2 5.2c-1.133 1.933-1.7 4.3-1.7 7.1h-3.3c-.933-3.067-1.3-5.7-1.1-7.9.267-2.267.833-4.3 1.7-6.1a22.172 22.172 0 0 1 3.2-4.9 75.966 75.966 0 0 0 3.6-4.5c1.2-1.533 2.2-3.167 3-4.9.867-1.733 1.3-3.733 1.3-6 0-1.267-.167-2.5-.5-3.7-.267-1.267-.767-2.367-1.5-3.3-.667-.933-1.567-1.667-2.7-2.2-1.067-.6-2.4-.9-4-.9-1.4 0-2.633.133-3.7.4-1.067.267-1.867.6-2.4 1L7.9 21.1zm.7 43c0-2.4.767-4.333 2.3-5.8 1.533-1.467 3.567-2.2 6.1-2.2 2.533 0 4.6.733 6.2 2.2 1.6 1.467 2.4 3.4 2.4 5.8s-.8 4.333-2.4 5.8C21.6 71.3 19.533 72 17 72c-2.533 0-4.567-.7-6.1-2.1-1.533-1.467-2.3-3.4-2.3-5.8z" fill="#918184"/></svg>