<svg width="14" height="8" viewBox="0 0 14 8" fill="none" xmlns="http://www.w3.org/2000/svg"><path d="M11.865 4.987c1.073.939 1.296 1.397 1.332 1.454.443.696-.49.75-.49.75l-1.79.025s-.386.071-.891-.258c-.67-.432-1.586-1.56-2.077-1.414-.499.148-.34 1.331-.34 1.331s.004.145-.109.262c-.124.122-.366.075-.366.075H6.62s-1.91.007-3.467-1.523C1.455 4.02.037.9.037.9S-.05.703.043.598C.149.48.437.481.437.481h1.914s.179.023.308.113a.544.544 0 0 1 .167.213s.231.58.642 1.25c.799 1.305 1.17 1.591 1.443 1.45.394-.205.275-1.845.275-1.845s.008-.596-.199-.86c-.161-.208-.46-.268-.594-.285-.108-.011.069-.248.298-.353.344-.158.954-.17 1.672-.162.56.006.771-.002.771-.002.66.15.437.733.437 2.125 0 .448-.087 1.076.255 1.283.147.092.674.105 1.57-1.334.427-.682.763-1.324.763-1.324s.072-.144.179-.205c.112-.064.261-.064.261-.064l2.015.01s.605-.072.702.188c.102.27-.248.745-1.069 1.78-1.352 1.703-1.503 1.545-.382 2.528z" fill="#fff"/></svg>