<svg width="15" height="18" viewBox="0 0 15 18" fill="none" xmlns="http://www.w3.org/2000/svg"><path d="M7.266 9.621h.106c.973-.016 1.76-.358 2.342-1.01 1.279-1.438 1.066-3.903 1.043-4.139-.083-1.766-.92-2.61-1.611-3.005C8.63 1.172 8.03 1.013 7.359 1h-.057c-.369 0-1.093.06-1.787.454-.698.394-1.548 1.24-1.631 3.018-.024.236-.236 2.7 1.043 4.139.578.652 1.365.994 2.339 1.01zM4.77 4.555c0-.01.003-.02.003-.026.11-2.376 1.8-2.631 2.525-2.631h.04c.897.02 2.421.384 2.524 2.63 0 .01 0 .02.004.027.003.023.236 2.276-.82 3.463-.42.47-.977.702-1.712.709h-.033c-.73-.007-1.292-.239-1.707-.71-1.054-1.179-.828-3.442-.824-3.462z" fill="#231F20" stroke="#231F20" stroke-width=".2"/><path d="M14.145 13.71v-.01c0-.026-.003-.053-.003-.083-.02-.656-.064-2.19-1.505-2.68-.01-.004-.024-.007-.034-.01-1.498-.381-2.744-1.243-2.757-1.253a.449.449 0 0 0-.625.11.446.446 0 0 0 .11.622c.057.04 1.379.958 3.033 1.382.774.275.86 1.1.884 1.856 0 .03 0 .056.003.082.004.299-.016.76-.07 1.024-.538.305-2.647 1.359-5.856 1.359-3.196 0-5.32-1.057-5.86-1.362a5.68 5.68 0 0 1-.07-1.024c0-.026.003-.053.003-.083.023-.755.11-1.58.884-1.855 1.654-.424 2.976-1.345 3.033-1.382a.446.446 0 0 0 .11-.623.449.449 0 0 0-.625-.109c-.014.01-1.253.871-2.758 1.252a.42.42 0 0 0-.033.01c-1.442.494-1.485 2.028-1.505 2.68 0 .03 0 .057-.003.084v.01c-.003.172-.007 1.056.17 1.5.033.087.092.16.172.21.1.066 2.488 1.583 6.485 1.583 3.996 0 6.385-1.52 6.485-1.584a.443.443 0 0 0 .172-.209c.167-.44.163-1.325.16-1.497z" fill="#231F20" stroke="#231F20" stroke-width=".2"/></svg>