<svg width="95" height="50" viewBox="0 0 95 50" fill="none" xmlns="http://www.w3.org/2000/svg"><path fill-rule="evenodd" clip-rule="evenodd" d="M18.773 20.377h5.421v2.348h-5.421v2.488h5.914v2.77h-9.293V15.294h9.152v2.769h-5.773v2.313zm20.139-5.082v12.687h-3.38V18.24h-3.696v5.327c0 2.77-1.197 4.556-3.801 4.556-.74 0-1.197-.035-1.725-.14V25.25c.316.105.563.105 1.02.105.95 0 1.268-.49 1.268-1.718v-8.341h10.314zm8.101 12.862c3.45 0 5.878-.806 5.878-4.731v-3.61c0-3.926-2.429-4.662-5.878-4.662-3.45 0-5.88.771-5.88 4.662v3.575c0 3.925 2.465 4.766 5.88 4.766zm0-2.944c-1.76 0-2.394-.245-2.394-2.138v-2.874c0-1.892.633-2.068 2.394-2.068 1.76 0 2.393.21 2.393 2.068v2.874c0 1.858-.598 2.138-2.393 2.138zm11.514-2.488h2.64c1.091 0 1.478.14 1.478 1.192 0 1.016-.457 1.296-1.548 1.296h-2.57v-2.488zm-3.38 5.257h6.76c2.71 0 4.153-.42 4.153-3.54 0-1.577-.317-2.733-2.218-2.838v-.14c1.69-.281 2.007-1.332 2.007-2.945 0-2.769-1.479-3.26-4.013-3.26h-6.688v12.723zm3.38-9.918h2.851c.916 0 1.056.315 1.056 1.086 0 1.017-.281 1.227-1.478 1.227h-2.43v-2.313zm15.281 10.093c3.45 0 5.878-.806 5.878-4.731v-3.61c0-3.926-2.429-4.662-5.879-4.662-3.45 0-5.878.771-5.878 4.662v3.575c0 3.925 2.464 4.766 5.879 4.766zm0-2.944c-1.76 0-2.394-.245-2.394-2.138v-2.874c0-1.892.633-2.068 2.394-2.068 1.76 0 2.393.21 2.393 2.068v2.874c0 1.858-.598 2.138-2.393 2.138zm10.983-1.577h.141l3.978-8.341h4.435v12.687h-3.203v-8.376h-.14l-3.803 8.376h-4.611V15.295h3.203v8.341zm-82.82-8.411v4.45c0 2.77-.387 4.136-1.267 5.328H0v5.853h2.957v-2.944H9.61v2.944h3.239v-5.853h-1.056v-9.778H1.97zm6.407 2.909v6.869H4.154c.704-1.262 1.056-2.629 1.056-5.117v-1.752h3.168z" fill="#fff"/><path fill-rule="evenodd" clip-rule="evenodd" d="M81.588 2a2 2 0 0 1 2-2h7.793a2 2 0 0 1 2 2v7.741a2 2 0 0 1-2 2h-7.793a2 2 0 0 1-2-2V2z" fill="#E3151A"/><path fill-rule="evenodd" clip-rule="evenodd" d="M3.835 37.985h1.031l3.48-4.723H12.6l-4.64 6.192 5.026 6.508H8.604l-3.738-5.038H3.835v5.038H.225v-12.7h3.61v4.723zm14.281 2.729h2.707c1.16 0 1.546.105 1.546 1.26 0 1.049-.515 1.259-1.675 1.259h-2.707v-2.52h.129zm-3.609 5.248h7.09c2.835 0 4.381-.42 4.381-3.569 0-1.574-.386-2.729-2.32-2.834v-.105c1.805-.315 2.063-1.364 2.063-2.939 0-2.833-1.547-3.253-4.254-3.253h-6.96v12.7zm3.609-9.971h2.965c.902 0 1.16.315 1.16 1.05 0 1.049-.258 1.259-1.547 1.259h-2.578v-2.31zm18.153 7.766l.644 2.205h3.61l-3.996-12.7h-5.414l-3.995 12.7h3.737l.645-2.205h4.769zm-.773-2.414h-3.223l1.676-5.562 1.547 5.562zm8.62-8.081v4.513c0 2.834-.386 4.198-1.289 5.353h-1.03v5.902h3.35v-3.07h6.96v3.069h3.352v-5.902h-1.16v-9.866H44.116zm6.574 2.834v6.927h-4.383c.774-1.26 1.16-2.624 1.16-5.143v-1.785h3.223zm10.783 6.297h3.094c3.738 0 4.511-1.154 4.511-4.723 0-3.358-1.289-4.513-4.511-4.513h-6.574v12.7h3.61v-3.464h-.13zm0-6.402h2.45c1.417 0 1.546.42 1.546 1.784 0 1.68-.258 1.89-1.547 1.89h-2.449V35.99zm17.2 7.766l.645 2.205h3.609l-3.996-12.7h-5.413l-3.996 12.7h3.738l.644-2.205h4.77zm-.644-2.414h-3.223l1.676-5.562 1.547 5.562zm11.783 4.619h-3.48V36.2h-3.61v-2.938h10.699V36.2h-3.61v9.761z" fill="#fff"/></svg>