<svg width="24" height="24" viewBox="0 0 24 24" fill="none" xmlns="http://www.w3.org/2000/svg"><path d="M19.558 4H4.446A2.448 2.448 0 0 0 2 6.446v10.329a2.448 2.448 0 0 0 2.446 2.445h15.108A2.448 2.448 0 0 0 22 16.775V6.45A2.445 2.445 0 0 0 19.558 4zm1.329 12.775a1.33 1.33 0 0 1-1.329 1.328H4.446a1.33 1.33 0 0 1-1.329-1.328V6.45a1.33 1.33 0 0 1 1.329-1.33h15.108a1.33 1.33 0 0 1 1.329 1.329v10.325h.004z" fill="#918184"/><path d="M14.615 11.482l4.891-4.386a.561.561 0 0 0 .041-.79.561.561 0 0 0-.79-.042l-6.745 6.054-1.316-1.175c-.004-.004-.008-.008-.008-.013a.836.836 0 0 0-.091-.078L5.242 6.26a.558.558 0 0 0-.79.045.558.558 0 0 0 .045.79l4.95 4.425-4.93 4.614a.56.56 0 0 0 .766.819l5.003-4.68 1.357 1.212a.558.558 0 0 0 .745-.004l1.395-1.25 4.974 4.726a.558.558 0 0 0 .77-.811l-4.912-4.664z" fill="#918184"/></svg>