<svg width="24" height="24" viewBox="0 0 24 24" fill="none" xmlns="http://www.w3.org/2000/svg"><path d="M17.804 14.4c-.41-.427-.904-.655-1.427-.655-.52 0-1.019.224-1.445.65l-1.335 1.331c-.11-.059-.22-.114-.325-.169a5.35 5.35 0 0 1-.419-.224c-1.25-.794-2.387-1.829-3.477-3.168-.528-.668-.882-1.23-1.14-1.8.346-.317.667-.646.98-.963.118-.118.237-.24.355-.36.887-.886.887-2.035 0-2.922L8.418 4.966c-.131-.13-.267-.266-.393-.401-.254-.262-.52-.532-.795-.786-.41-.405-.9-.62-1.415-.62s-1.014.215-1.436.62l-.009.009-1.436 1.449c-.54.54-.849 1.2-.917 1.964-.101 1.234.262 2.383.541 3.135.684 1.846 1.707 3.557 3.232 5.39a19.88 19.88 0 0 0 6.62 5.184c.971.46 2.268 1.005 3.717 1.098.089.004.182.008.266.008.976 0 1.796-.35 2.438-1.047.004-.009.013-.013.017-.021.22-.267.473-.507.74-.765.18-.173.367-.355.548-.545.419-.435.638-.942.638-1.462 0-.523-.224-1.026-.65-1.449l-2.32-2.327zm1.513 4.448c-.005 0-.005.004 0 0-.165.178-.334.338-.516.515-.274.262-.553.537-.815.845-.427.457-.93.672-1.588.672-.064 0-.131 0-.195-.004-1.254-.08-2.42-.57-3.295-.989a18.767 18.767 0 0 1-6.235-4.883c-1.44-1.736-2.404-3.342-3.042-5.065-.393-1.052-.536-1.872-.473-2.645a1.94 1.94 0 0 1 .583-1.255l1.44-1.44c.208-.195.427-.3.643-.3.266 0 .481.16.616.296l.013.012c.258.241.503.49.76.756.131.136.267.27.402.41l1.153 1.153c.448.448.448.862 0 1.31-.122.123-.24.245-.363.363a22.05 22.05 0 0 1-1.06 1.031c-.009.009-.017.013-.022.021-.363.364-.295.718-.22.96.005.012.01.025.013.037.3.727.723 1.411 1.365 2.227l.004.004c1.166 1.436 2.395 2.556 3.752 3.413.173.11.35.199.52.283.151.076.295.148.417.224l.051.03a.916.916 0 0 0 .418.105c.35 0 .57-.22.642-.291l1.445-1.445c.144-.144.372-.317.638-.317.262 0 .477.165.608.309a.677.677 0 0 1 .009.008l2.328 2.328c.435.43.435.874.004 1.322zM12.802 6.761a5.357 5.357 0 0 1 2.914 1.513 5.385 5.385 0 0 1 1.513 2.915.567.567 0 0 0 .562.473c.033 0 .063-.005.097-.009a.57.57 0 0 0 .469-.659 6.516 6.516 0 0 0-1.83-3.527A6.516 6.516 0 0 0 13 5.637a.573.573 0 0 0-.659.465.564.564 0 0 0 .46.66zm9.178 4.069a10.72 10.72 0 0 0-3.013-5.81 10.72 10.72 0 0 0-5.807-3.01.568.568 0 0 0-.655.464.573.573 0 0 0 .469.66 9.599 9.599 0 0 1 5.192 2.69 9.571 9.571 0 0 1 2.69 5.192.567.567 0 0 0 .562.473c.034 0 .064-.004.098-.008a.56.56 0 0 0 .464-.65z" fill="#918184"/></svg>