<svg width="48" height="31" viewBox="0 0 48 31" fill="none" xmlns="http://www.w3.org/2000/svg"><path d="M48 20.93a8.91 8.91 0 0 1-.892 3.94 10.24 10.24 0 0 1-2.23 3.24c-.893.876-1.964 1.576-3.213 2.102a10.248 10.248 0 0 1-4.014.788c-1.428 0-2.766-.263-4.015-.788a11.299 11.299 0 0 1-3.301-2.102 11.048 11.048 0 0 1-2.142-3.24 9.74 9.74 0 0 1-.803-3.94c0-2.336.387-4.496 1.16-6.48a23.155 23.155 0 0 1 3.123-5.693 32.524 32.524 0 0 1 4.64-4.816A50.173 50.173 0 0 1 41.842 0l3.302 2.802c-1.13.993-2.171 2.248-3.123 3.766-.951 1.518-1.576 3.036-1.873 4.553 2.26.526 4.133 1.723 5.62 3.59C47.258 16.522 48 18.595 48 20.93zm-27.39 0a8.91 8.91 0 0 1-.892 3.94 10.24 10.24 0 0 1-2.231 3.24c-.892.876-1.993 1.576-3.301 2.102-1.25.525-2.588.788-4.015.788-1.428 0-2.766-.263-4.015-.788a11.681 11.681 0 0 1-3.212-2.102 11.048 11.048 0 0 1-2.141-3.24A9.74 9.74 0 0 1 0 20.93c0-2.336.387-4.496 1.16-6.48a23.157 23.157 0 0 1 3.123-5.693 32.526 32.526 0 0 1 4.639-4.816A50.18 50.18 0 0 1 14.453 0l3.212 2.802c-1.07.993-2.081 2.248-3.033 3.766-.952 1.518-1.576 3.036-1.874 4.553 2.26.526 4.134 1.723 5.621 3.59 1.487 1.81 2.23 3.883 2.23 6.218z" fill="#918184"/></svg>