<svg width="21" height="12" viewBox="0 0 21 12" fill="none" xmlns="http://www.w3.org/2000/svg"><path d="M10.059 0C6.215 0 2.73 2.105.159 5.521a.795.795 0 0 0 0 .952C2.73 9.895 6.22 12 10.063 12c3.844 0 7.333-2.105 9.906-5.521a.795.795 0 0 0 0-.952C17.392 2.105 13.908 0 10.059 0zm.278 10.225a4.233 4.233 0 0 1-4.498-4.498c.134-2.11 1.842-3.818 3.947-3.947a4.232 4.232 0 0 1 4.497 4.498c-.133 2.1-1.842 3.808-3.946 3.947zm-.129-1.95a2.272 2.272 0 0 1-2.419-2.42 2.295 2.295 0 0 1 2.13-2.13 2.272 2.272 0 0 1 2.42 2.42 2.295 2.295 0 0 1-2.131 2.13z" fill="#fff"/></svg>