<svg width="100" height="100" fill="none" xmlns="http://www.w3.org/2000/svg"><path fill="#F6F3F1" d="M0 0h100v100H0z"/><path d="M90 99.998c-.608-17.922-2.807-23.957-10.574-28.062-2.733-1.445-7.165-1.969-12.254-3.747.02-.135.024-.205.024-.205s-.82-1.808-1.195-2.536c-.875-1.709-1.458-2.038-3.81-2.207-.553-2.227-.282-4.524.682-6.592.193-.23.375-.434.538-.608.233-.25 1.092-3.563 1.216-5.157.005-.095.212-.24.336-.245.415-.03.8-.114 1.023-.493.148-.254.242-.543.34-.827.302-.862.534-1.809.984-2.581 1.067-1.829 1.907-3.697 1.789-5.87a69.757 69.757 0 0 0-.292-3.368.409.409 0 0 0-.222-.334c.267-.822-.203-1.699-.257-2.406-.005-.045-.005-.085-.005-.13.227-.04.321.27.534.344-.04-.538.005-1.116.059-1.694l.114-.015c.004-.04.365-1.655.37-1.714.143-2.736.736-4.968-.02-7.629-.672-2.372-1.576-6.702-5.297-8.067-1.408-.518-5.41-.797-5.41-.797s-.682-2.492-3.153-2.905c-3.093-.469-2.856.319-5.39 0-1.31-.165-3.741-.17-6.661 1.121-3.499 1.54-5.203 2.895-6.538 4.32a3.17 3.17 0 0 0-.518.473c-2.614 2.975-4.077 7.664-3.854 11.645.004.085.02.204.044.354.736 4.55-.346 3.991.025 4.908.197-.095.276-.29.489-.374.104.568-.341 1.73-.178 2.521-.222-.01-.39.16-.41.374a64.036 64.036 0 0 0-.292 3.368c-.118 2.173.722 4.041 1.789 5.87.45.772.687 1.72.983 2.581.1.28.188.573.341.827.223.379.608.464 1.023.494.124.01.331.149.336.244.124 1.59.944 4.878 1.181 5.127.03.03.054.06.084.095 0 .005.005.005.005.01.01.01.02.025.03.034.153.17.32.364.504.573.77 1.665 1.304 3.932.617 6.617.01-.034.015-.07.025-.104-2.367.17-2.95.493-3.825 2.207-.37.728-1.195 2.536-1.195 2.536s.005.03.01.09c-5.223 1.834-9.799 2.402-12.576 3.867C13.807 76.037 11.608 82.076 11 99.998h79z" fill="#D7D1CB"/></svg>